Please seed! Please comment!

 
http://www.imdb.com/title/tt0357277/?ref_=fn_al_tt_2


elektra.mkv 

Format                              : Matroska
Format version                      : Version 2
File size                           : 27.1 GiB
Duration                            : 1h 39mn
Overall bit rate mode               : Variable
Overall bit rate                    : 38.9 Mbps
Movie name                          : ELEKTRAWW.Title113.BlurayRip
Encoded date                        : UTC 2012-12-02 04:17:28
Writing application                 : DVDFab
Writing library                     : libebml v0.7.8 + libmatroska v0.8.1

Video
ID                                  : 1
Format                              : AVC
Format/Info                         : Advanced Video Codec
Format profile                      : High@L4.1
Format settings, CABAC              : Yes
Format settings, ReFrames           : 4 frames
Codec ID                            : V_MPEG4/ISO/AVC
Duration                            : 1h 39mn
Bit rate mode                       : Variable
Bit rate                            : 35.5 Mbps
Maximum bit rate                    : 38.0 Mbps
Width                               : 1 920 pixels
Height                              : 1 080 pixels
Display aspect ratio                : 16:9
Frame rate mode                     : Constant
Frame rate                          : 23.976 fps
Color space                         : YUV
Chroma subsampling                  : 4:2:0
Bit depth                           : 8 bits
Scan type                           : Progressive
Bits/(Pixel*Frame)                  : 0.714
Stream size                         : 24.8 GiB (91%)
Default                             : Yes
Forced                              : No
Color primaries                     : BT.709
Transfer characteristics            : BT.709
Matrix coefficients                 : BT.709

Audio
ID                                  : 2
Format                              : DTS
Format/Info                         : Digital Theater Systems
Format profile                      : MA / Core
Codec ID                            : A_DTS
Duration                            : 1h 39mn
Bit rate mode                       : Variable
Bit rate                            : 2 626 Kbps / 1 510 Kbps
Channel(s)                          : 6 channels
Channel positions                   : Front: L C R, Side: L R, LFE
Sampling rate                       : 48.0 KHz
Bit depth                           : 24 bits
Compression mode                    : Lossless / Lossy
Language                            : English
Default                             : Yes
Forced                              : No



ELEKTRA.avi

Format                              : AVI
Format/Info                         : Audio Video Interleave
Format profile                      : OpenDML
File size                           : 3.24 GiB
Duration                            : 1h 39mn
Overall bit rate                    : 4 646 Kbps
Movie name                          : ELEKTRA
Writing application                 : Lavf53.21.0
Original source form/Name           : ELEKTRAWW

Video
ID                                  : 0
Format                              : AVC
Format/Info                         : Advanced Video Codec
Format profile                      : High@L4.1
Format settings, CABAC              : Yes
Format settings, ReFrames           : 2 frames
Codec ID                            : H264
Duration                            : 1h 39mn
Bit rate                            : 3 996 Kbps
Width                               : 1 280 pixels
Height                              : 548 pixels
Display aspect ratio                : 2.35:1
Frame rate                          : 23.976 fps
Color space                         : YUV
Chroma subsampling                  : 4:2:0
Bit depth                           : 8 bits
Scan type                           : Progressive
Bits/(Pixel*Frame)                  : 0.238
Stream size                         : 2.79 GiB (86%)
Writing library                     : x264 core
Color primaries                     : BT.709
Transfer characteristics            : BT.709
Matrix coefficients                 : BT.709

Audio
ID                                  : 1
Format                              : AC-3
Format/Info                         : Audio Coding 3
Mode extension                      : CM (complete main)
Format settings, Endianness         : Big
Codec ID                            : 2000
Duration                            : 1h 39mn
Bit rate mode                       : Constant
Bit rate                            : 640 Kbps
Channel(s)                          : 6 channels
Channel positions                   : Front: L C R, Side: L R, LFE
Sampling rate                       : 48.0 KHz
Bit depth                           : 16 bits
Compression mode                    : Lossy
Stream size                         : 457 MiB (14%)
Alignment                           : Aligned on interleaves
Interleave, duration                : 32 ms (0.77 video frame)